# xmcd CD database file
#
# Track frame offsets:
#	150
#	5703
#	21628
#	37857
#	58471
#	61346
#	82154
#	89945
#	112304
#	130844
#	147408
#	162050
#	171139
#	187690
#	207256
#	220435
#	236392
#
# Disc length: 3397 seconds
#
# Revision: 7
# Processed by: cddbd v1.5.1PL0 Copyright (c) Steve Scherf et al.
# Submitted via: CDex 1.51
#
DISCID=010d4311
DTITLE=브라운 아이즈(Brown Eyes) - Reason 4 Breathing?
DYEAR=2002
DGENRE=R&B
TTITLE0=Intro (You'Re Waiting For Love With Me...)
TTITLE1=점점
TTITLE2=비오는 압구정
TTITLE3=떠나지마
TTITLE4=Brown City2 (...I Wanna Fall In Love I Wanna Fall In Love I Wanna Fall In Love Wanna Fall In Love With You...)
TTITLE5=사랑 (I Wanna Fall In Love With You) (Feat. Sunny)
TTITLE6=Piano Cavatina (점점) 
TTITLE7=True Luv
TTITLE8=For You (돌아가줘)
TTITLE9=환상
TTITLE10=그래도 되겠니
TTITLE11=Interlude
TTITLE12=Miss You...
TTITLE13=오후
TTITLE14=이별송
TTITLE15=점점 (Instrumental)
TTITLE16=For You (Instrumental)
EXTD=YEAR: 2002
EXTT0=
EXTT1=
EXTT2=
EXTT3=
EXTT4=
EXTT5=
EXTT6=
EXTT7=
EXTT8=
EXTT9=
EXTT10=
EXTT11=
EXTT12=
EXTT13=
EXTT14=
EXTT15=
EXTT16=
PLAYORDER=
